<svg width="32" height="32" viewBox="0 0 32 32" fill="none" xmlns="http://www.w3.org/2000/svg">
<rect width="32" height="32" rx="16" fill="black"/>
<path d="M19.8 16.164C19.8 18.864 18.12 20.4 15.408 20.4H12V20.196C12.804 20.196 13.188 20.028 13.188 19.272V13.128C13.188 12.372 12.78 12.204 12 12.204V12H15.072C18.336 12 19.8 13.296 19.8 16.164ZM15.336 20.196C17.82 20.196 19.116 18.96 19.116 16.164C19.116 13.716 17.916 12.204 15.072 12.204C14.052 12.204 13.824 12.372 13.824 13.128V19.284C13.824 20.028 14.076 20.196 15.336 20.196Z" fill="white"/>
</svg>
