<?xml version="1.0" encoding="UTF-8"?>
<svg id="Camada_2" data-name="Camada 2" xmlns="http://www.w3.org/2000/svg" viewBox="0 0 443.14 382.41">
  <defs>
    <style>
      .cls-1 {
        fill: #fff;
      }
    </style>
  </defs>
  <g id="Camada_1-2" data-name="Camada 1">
    <path class="cls-1" d="M433.12,191c-11.45,12.48-45.2,55.22-72.61,61.77-7.77,1.64-18.2.82-18.2-8.59,0-13.91,25.36-36.2,6.75-48.27-5.52-3.27-20.66-7.57-21.68-12.89-.61-1.64,8.18-4.29,7.16-9-.61-4.91-7.77-7.36-13.7-4.09-7.98,4.91-10.23,12.68-9.2,18.2.19.87.47,1.7.83,2.51-13.93,1.86-35.85,5.73-62.6,11.4,20.86-51.95,25.77-105.33,5.52-148.49C224.29-11.89,151.68-11.28,96.45,22.88c-28.84,18-52.97,43.36-66.68,69.54-10.84,21.88,10.84,27.2,14.73,10.64,7.16-32.11,28.63-59.52,55.22-75.68,52.97-32.72,115.15-15.54,138.47,38.66,18,41.93,14.11,91.63-3.89,139.28l-12.68,3.07c-49.09,11.45-105.54,28.63-148.49,50.93-7.36-49.5,31.5-131.51,41.52-159.53,7.57-20.86-8.59-35.18-17.39-12.68-20.66,51.34-42.13,120.47-31.29,176.1-2.66,1.43-5.32,2.86-7.77,4.5-30.88,18.41-67.09,47.04-56.25,87.33,17.18,50.52,90.81,20.04,127.42-3.48,48.47-31.5,91.63-83.86,116.17-139.69,31.29-7.16,56.25-10.84,68.31-12.27,1.95-.17,3.29-1.04,4.07-2.18,5.62,4.36,13.8,6.5,20.48,5.45-9,11.66-17.79,34.97-7.57,49.5,6.75,8.79,17.59,10.64,27.41,9,32.72-5.73,69.33-49.91,81.4-65.25,8.39-8.79-.2-12.07-6.54-5.11ZM127.13,343.17c-27,18-77.72,44.59-100.83,19.02-8.79-9.2-10.02-21.48-8.18-32.93,3.89-22.29,21.07-38.45,41.31-51.54,2.66-1.84,5.73-3.48,8.79-5.32,2.66,9.82,6.34,19.02,11.45,27.82,7.36,12.89,27.2-.82,13.91-8.39-9.2-5.11-15.14-13.29-18.2-23.32,41.11-21.48,99.4-39.27,148.9-51.75l5.93-1.43c-21.88,51.34-59.31,98.38-103.08,127.83Z"/>
  </g>
</svg>