<svg width="460" height="37" viewBox="0 0 460 37" fill="none" xmlns="http://www.w3.org/2000/svg">
<path d="M3 16C1.61929 16 0.5 17.1193 0.5 18.5C0.5 19.8807 1.61929 21 3 21V16ZM458.768 20.2678C459.744 19.2915 459.744 17.7085 458.768 16.7322L442.858 0.82233C441.882 -0.15398 440.299 -0.15398 439.322 0.82233C438.346 1.79864 438.346 3.38155 439.322 4.35786L453.464 18.5L439.322 32.6421C438.346 33.6184 438.346 35.2014 439.322 36.1777C440.299 37.154 441.882 37.154 442.858 36.1777L458.768 20.2678ZM3 21H457V16H3V21Z" fill="white"/>
</svg>
